<?xml version="1.0" standalone="no"?>
<!DOCTYPE svg PUBLIC "-//W3C//DTD SVG 20010904//EN"
 "http://www.w3.org/TR/2001/REC-SVG-20010904/DTD/svg10.dtd">
<svg version="1.0" xmlns="http://www.w3.org/2000/svg"
 width="552.000000pt" height="551.000000pt" viewBox="0 0 552.000000 551.000000"
 preserveAspectRatio="xMidYMid meet">

<g transform="translate(0.000000,551.000000) scale(0.100000,-0.100000)"
fill="#000000" stroke="none">
<path d="M0 2755 l0 -2755 895 0 c890 0 895 0 940 21 47 22 75 20 75 -6 0 -11
11 -15 46 -15 45 0 46 1 42 28 -4 26 -2 28 21 24 20 -3 23 -1 11 7 -12 8 -12
13 0 38 8 15 21 34 28 41 6 7 12 18 12 24 0 5 7 8 15 4 8 -3 15 -1 15 4 0 6
-5 10 -12 10 -6 0 -3 9 7 20 10 11 24 20 32 20 7 0 13 6 13 14 0 25 13 25 90
4 86 -24 96 -32 106 -84 3 -21 10 -43 14 -49 11 -13 0 -66 -11 -59 -5 3 -9 0
-9 -5 0 -6 9 -11 21 -11 13 0 18 4 13 12 -5 7 -3 8 5 3 7 -4 11 -16 8 -26 -5
-17 1 -19 55 -19 53 0 59 2 53 17 -17 42 -17 90 -1 105 9 9 16 21 16 27 0 6
10 11 23 11 13 0 28 5 35 12 17 17 28 2 12 -17 -17 -20 -6 -19 16 2 15 16 17
16 30 -2 13 -18 14 -18 14 3 0 14 5 20 13 16 21 -8 156 -11 151 -3 -2 4 7 10
21 13 13 3 35 16 48 29 l24 22 -121 1 c-247 2 -559 77 -751 179 -27 15 -77 41
-110 58 -80 41 -179 110 -240 168 -27 26 -65 60 -84 75 -65 55 -159 153 -192
201 -39 59 -80 104 -89 98 -3 -2 -3 -37 2 -77 9 -81 3 -167 -17 -214 -42 -101
-231 -144 -398 -90 -139 43 -312 179 -404 316 -119 177 -168 386 -158 680 7
189 37 309 95 374 l29 31 121 -2 c179 -3 266 -35 376 -139 113 -108 159 -138
175 -113 14 22 11 45 -11 85 -49 86 -149 293 -164 337 -9 27 -14 53 -10 58 3
6 -2 19 -11 29 -12 13 -13 20 -5 25 7 4 8 10 4 14 -5 3 -15 16 -22 29 -11 19
-11 27 0 40 12 15 11 16 -4 3 -16 -12 -19 -10 -28 14 -6 15 -8 30 -5 33 3 3 5
1 5 -4 0 -5 11 -10 25 -10 24 -2 29 6 26 34 -1 6 5 12 13 12 9 0 14 -6 13 -12
-2 -7 1 -3 7 10 5 12 19 22 30 23 12 0 15 3 9 6 -9 3 -10 10 -3 24 7 13 7 19
0 19 -5 0 -10 7 -10 16 0 8 -5 12 -10 9 -6 -3 -10 2 -11 12 -1 36 -8 56 -21
64 -7 5 -8 9 -3 9 6 0 17 -6 24 -12 10 -11 11 -10 6 5 -4 9 -13 17 -21 17 -16
0 -18 28 -5 49 5 8 14 10 21 6 7 -4 16 -1 22 6 7 11 11 11 15 2 7 -19 23 -16
17 2 -5 13 -2 14 21 5 31 -12 48 -4 25 10 -12 8 -11 10 7 10 12 0 24 -6 26
-12 4 -10 6 -10 6 0 1 6 13 12 29 13 l27 1 -25 8 c-22 7 -23 8 -4 9 40 2 56
47 39 114 -5 17 -3 27 4 27 6 0 11 7 11 15 0 8 -6 15 -13 15 -9 0 -13 18 -14
56 -1 35 -6 60 -15 65 -10 8 -9 12 6 24 11 9 14 15 7 15 -9 0 -8 4 3 15 8 8
19 15 25 15 6 0 11 5 11 10 0 6 12 16 28 23 15 6 29 14 32 18 15 17 120 77
120 68 0 -8 5 -7 15 1 8 7 15 18 15 24 0 6 18 19 40 29 22 9 40 22 40 29 0 6
3 9 6 5 3 -3 17 6 30 20 24 26 31 38 16 29 -4 -2 -8 4 -8 14 0 10 4 16 8 14 4
-3 9 7 9 23 2 24 2 25 6 5 3 -13 15 -27 28 -32 12 -5 25 -15 28 -22 4 -9 6 -9
6 -1 1 9 10 8 36 -3 32 -13 36 -13 41 1 4 8 13 15 21 15 12 0 13 3 4 14 -9 11
-10 20 -1 35 14 28 47 45 56 29 5 -7 3 -8 -6 -3 -8 5 -11 3 -8 -6 3 -8 10 -14
16 -14 12 0 59 -47 54 -53 -2 -2 -1 -6 2 -9 3 -4 6 -1 6 7 0 10 3 10 15 0 8
-7 22 -10 30 -6 8 3 15 1 15 -4 0 -6 -5 -10 -12 -10 -6 0 -9 -3 -5 -6 3 -4 18
3 33 15 21 17 29 19 36 9 5 -9 8 -8 8 5 0 10 4 16 9 12 5 -3 15 1 23 7 17 17
106 40 120 32 6 -4 14 0 19 7 7 12 10 12 18 1 6 -11 10 -10 15 3 4 11 13 15
26 12 11 -3 20 0 20 6 0 6 3 7 6 4 4 -3 15 -2 25 4 14 7 19 6 19 -3 0 -10 2
-10 9 1 6 9 18 11 36 7 19 -5 25 -4 19 5 -5 9 -1 10 14 7 12 -3 23 -1 26 6 3
7 5 7 5 -2 1 -8 6 -10 13 -6 7 5 29 9 50 10 20 1 42 5 47 9 6 3 11 0 11 -7 0
-8 3 -9 8 -3 10 14 42 15 42 1 0 -6 12 2 26 18 18 18 28 42 31 69 2 23 9 45
16 49 9 6 9 8 0 8 -7 0 -13 4 -13 10 0 5 7 7 15 4 10 -4 15 0 15 12 1 18 1 18
14 2 7 -10 21 -18 30 -18 21 0 21 -17 -1 -23 -10 -2 -8 -3 5 -2 13 1 26 -4 29
-11 3 -8 11 -14 18 -14 6 0 20 -9 30 -20 10 -11 15 -20 12 -20 -4 0 1 -8 11
-18 14 -14 34 -18 102 -18 47 0 92 -2 100 -5 8 -3 12 -4 8 -2 -5 3 -8 8 -8 12
0 11 79 11 85 0 4 -5 12 -6 18 -2 13 8 45 10 278 12 135 1 159 3 177 19 19 17
19 19 3 29 -18 11 -51 99 -51 137 0 17 -2 18 -10 6 -8 -13 -10 -12 -11 5 -1
11 -2 28 -1 38 1 9 -3 17 -8 17 -6 0 -10 5 -10 11 0 5 5 7 10 4 6 -3 10 1 10
9 0 8 5 18 12 22 8 5 9 2 4 -11 -5 -14 -4 -16 7 -7 17 14 38 -3 30 -25 -3 -8
0 -13 8 -11 8 2 14 -4 15 -12 1 -32 16 -63 24 -50 5 8 16 -9 30 -46 12 -32 27
-65 33 -73 10 -12 9 -13 -2 -7 -10 7 -12 4 -7 -12 4 -12 2 -23 -5 -28 -7 -4
-9 -3 -5 4 3 6 2 14 -4 17 -8 5 -7 11 1 21 10 12 9 13 -5 8 -18 -7 -22 -34 -5
-34 5 0 8 -4 5 -8 -2 -4 -1 -14 5 -22 6 -10 9 -11 9 -2 0 6 5 12 10 12 6 0 10
-10 10 -22 0 -12 3 -18 7 -15 3 4 12 -1 19 -11 8 -11 9 -19 2 -23 -5 -4 7 -6
28 -5 25 1 48 9 64 24 29 26 60 32 40 7 -7 -9 -10 -19 -6 -22 4 -4 11 -1 15 6
6 9 16 11 32 5 28 -10 62 -14 107 -14 19 1 32 -4 32 -12 0 -9 3 -8 10 2 5 8
10 10 10 4 0 -7 17 -10 45 -8 24 2 47 -1 50 -6 3 -6 15 -10 26 -10 11 0 18 -4
15 -9 -3 -5 9 -9 27 -9 17 0 52 -9 77 -20 25 -10 51 -17 58 -15 6 3 12 -4 13
-14 0 -16 1 -16 9 2 5 11 9 16 9 10 1 -5 10 3 20 18 13 20 20 25 24 15 3 -7 6
-3 6 10 1 12 7 22 16 22 9 0 12 -6 8 -17 -4 -11 -3 -14 5 -9 7 4 12 2 12 -4 0
-6 4 -9 8 -6 4 2 14 0 22 -6 12 -8 12 -9 -3 -4 -14 4 -16 2 -9 -12 5 -9 8 -25
7 -35 -3 -15 -1 -16 11 -6 10 8 11 15 4 24 -7 8 -5 12 5 12 8 0 15 -8 15 -18
0 -10 5 -21 12 -25 7 -5 8 -3 3 7 -8 12 -6 12 9 0 13 -11 14 -16 4 -22 -8 -5
-2 -8 17 -6 29 2 30 1 31 -43 1 -25 -1 -39 -3 -32 -3 6 -11 12 -19 12 -8 0
-14 7 -14 16 0 8 -5 12 -10 9 -6 -3 -20 -3 -31 0 -15 5 -19 13 -15 28 5 20 4
21 -8 5 -13 -17 -52 -26 -42 -10 2 4 -3 8 -12 9 -50 3 -166 33 -173 45 -7 10
-9 9 -9 -5 0 -15 -3 -16 -22 -5 -13 7 -27 11 -33 9 -5 -2 -27 -5 -47 -6 -27
-2 -38 2 -38 12 0 9 -5 11 -12 6 -7 -4 -22 -9 -33 -9 -11 -1 -33 -5 -48 -8
-16 -4 -46 -8 -67 -10 -21 -2 -46 -11 -55 -20 -9 -9 -20 -14 -23 -12 -12 7
-30 -20 -23 -33 6 -9 15 -9 35 -1 35 13 138 13 300 0 149 -12 288 -52 435
-124 51 -25 98 -43 103 -39 6 3 4 9 -6 15 -9 5 -16 15 -16 22 0 7 -13 22 -30
34 -26 20 -28 25 -18 47 12 27 62 38 52 11 -4 -11 0 -13 15 -9 13 3 21 1 21
-6 0 -7 -4 -9 -10 -6 -5 3 -10 1 -10 -5 0 -7 7 -9 16 -6 21 8 44 -11 44 -35 0
-11 4 -19 8 -19 4 0 9 -12 10 -26 2 -22 -1 -25 -18 -21 -12 3 -24 -1 -30 -11
-7 -13 -9 -13 -10 -3 0 8 -2 12 -5 10 -2 -3 2 -29 10 -59 38 -142 28 -321 -24
-432 -30 -63 -20 -64 36 -6 24 25 37 52 49 103 10 39 23 77 31 86 7 8 13 20
13 25 0 5 -5 2 -11 -6 -8 -12 -9 -11 -6 5 2 11 9 19 15 18 15 -4 15 7 2 42 -7
17 -7 24 0 20 6 -3 10 -13 10 -20 0 -9 6 -12 18 -8 14 5 15 3 5 -8 -14 -15
-18 -33 -5 -25 5 3 6 -8 4 -25 -3 -22 0 -29 12 -29 9 0 16 -6 15 -12 -1 -7 1
-20 4 -28 3 -8 18 -51 32 -95 27 -82 32 -96 58 -155 27 -62 45 -122 76 -260
72 -322 76 -359 75 -600 -1 -175 -4 -205 -28 -295 -37 -143 -91 -263 -153
-342 -72 -91 -204 -224 -278 -281 -33 -26 -83 -65 -111 -87 -127 -103 -356
-234 -469 -269 -33 -10 -76 -25 -95 -33 -19 -9 -48 -21 -65 -28 -16 -7 -47
-20 -68 -29 -51 -21 -44 -41 14 -41 24 0 50 -4 58 -9 10 -6 12 -6 7 2 -10 16
9 15 22 -1 6 -7 8 -31 5 -56 -4 -29 -9 -38 -15 -29 -5 8 -6 3 -2 -14 4 -19 0
-39 -15 -63 -12 -20 -15 -33 -9 -29 10 6 10 4 2 -7 -6 -8 -14 -27 -18 -42 l-7
-28 58 3 c32 2 56 7 55 12 -2 5 1 12 8 16 6 4 13 27 15 51 2 24 5 46 6 49 3
11 6 26 7 43 1 10 6 15 12 12 7 -4 7 2 1 18 -6 14 -7 28 -4 31 3 3 7 16 8 28
4 36 5 38 13 37 4 -1 14 -1 22 0 13 1 13 2 0 11 -13 9 -13 10 0 10 20 0 43
-47 26 -54 -6 -2 -4 -5 5 -5 21 -1 31 -35 15 -51 -8 -8 -6 -9 8 -4 12 5 17 4
13 -3 -4 -6 2 -27 12 -48 10 -21 16 -46 13 -57 -2 -10 1 -18 7 -18 7 0 9 -5 6
-10 -4 -6 -1 -24 7 -40 12 -27 17 -30 60 -30 l46 0 -12 54 c-7 29 -34 90 -60
136 -26 45 -54 99 -61 121 -13 36 -13 39 4 39 9 0 27 -13 39 -30 42 -56 271
-188 363 -209 62 -14 157 -53 206 -84 l43 -27 345 0 345 0 0 2755 0 2755
-2760 0 -2760 0 0 -2755z m3435 1197 c-6 -6 -34 11 -39 24 -4 11 0 10 18 -3
13 -10 23 -19 21 -21z m2 -20 c19 -16 20 -20 6 -46 -14 -26 -17 -27 -25 -12
-6 11 -6 22 2 32 10 11 9 14 -4 14 -9 0 -16 7 -16 15 0 20 12 19 37 -3z m-827
-222 c0 -5 -2 -10 -4 -10 -3 0 -8 5 -11 10 -3 6 -1 10 4 10 6 0 11 -4 11 -10z
m1210 -150 c0 -11 -2 -20 -4 -20 -2 0 -6 9 -9 20 -3 11 -1 20 4 20 5 0 9 -9 9
-20z m584 -51 c-8 -14 -34 -11 -34 4 0 8 3 17 7 20 9 9 34 -13 27 -24z m186
-238 c0 -19 -3 -22 -9 -12 -5 8 -7 21 -3 29 3 10 1 13 -6 8 -7 -4 -12 -1 -12
10 0 13 3 14 15 4 8 -7 15 -24 15 -39z m30 42 c0 -10 -20 -40 -20 -31 0 3 -3
13 -6 22 -4 11 -1 16 10 16 9 0 16 -3 16 -7z m587 -1121 c11 -7 30 -52 54
-132 10 -31 14 -99 14 -215 -1 -258 -51 -483 -136 -614 -36 -54 -52 -53 -26 2
28 58 58 207 65 321 8 126 -2 403 -17 480 -22 108 -22 133 -6 150 18 17 33 20
52 8z"/>
<path d="M3510 3750 c0 -5 5 -10 10 -10 6 0 10 5 10 10 0 6 -4 10 -10 10 -5 0
-10 -4 -10 -10z"/>
<path d="M3520 3694 c0 -5 7 -18 15 -28 8 -11 15 -16 15 -10 0 5 -7 18 -15 28
-8 11 -15 16 -15 10z"/>
<path d="M3537 3629 c7 -7 15 -10 18 -7 3 3 -2 9 -12 12 -14 6 -15 5 -6 -5z"/>
<path d="M2487 3494 c2 -7 11 -10 19 -7 19 7 18 10 -5 16 -13 3 -18 1 -14 -9z"/>
<path d="M2710 3479 c0 -5 5 -7 10 -4 6 3 10 8 10 11 0 2 -4 4 -10 4 -5 0 -10
-5 -10 -11z"/>
<path d="M4065 3480 c-3 -5 -1 -10 4 -10 6 0 11 5 11 10 0 6 -2 10 -4 10 -3 0
-8 -4 -11 -10z"/>
<path d="M3091 3444 c0 -11 3 -14 6 -6 3 7 2 16 -1 19 -3 4 -6 -2 -5 -13z"/>
<path d="M2088 3403 c7 -3 16 -2 19 1 4 3 -2 6 -13 5 -11 0 -14 -3 -6 -6z"/>
<path d="M2380 3401 c0 -10 -14 -12 -60 -9 -37 3 -61 0 -64 -6 -3 -7 -8 -6
-14 2 -7 10 -11 10 -21 -2 -10 -11 -18 -13 -31 -6 -13 7 -21 7 -25 0 -3 -6
-18 -10 -33 -9 -25 1 -115 -18 -207 -43 -22 -7 -43 -11 -47 -10 -5 1 -8 -3 -8
-9 0 -5 -4 -7 -10 -4 -5 3 -20 1 -32 -6 -17 -9 -23 -9 -26 0 -3 8 -9 3 -16
-11 -6 -12 -17 -24 -24 -24 -7 -1 -15 -3 -19 -4 -5 -1 -12 -3 -18 -4 -27 -5
-65 -27 -74 -43 -6 -10 -11 -15 -11 -11 0 4 -14 -6 -32 -22 -17 -16 -35 -27
-40 -24 -5 3 -7 1 -6 -4 2 -6 -14 -31 -34 -56 -21 -24 -38 -47 -38 -50 0 -3
-8 -15 -17 -25 -12 -15 -16 -35 -14 -77 3 -56 26 -134 40 -134 4 0 15 -14 26
-32 37 -63 206 -217 272 -249 117 -56 145 -61 343 -65 208 -4 268 5 379 58 90
43 227 176 269 261 42 84 57 191 40 287 -5 30 -11 75 -14 100 -3 25 -15 61
-26 80 -19 33 -93 90 -117 90 -7 0 -9 5 -6 10 4 6 -8 10 -29 10 -30 0 -34 3
-29 18 6 14 4 15 -8 5 -10 -8 -28 -9 -63 -2 -26 5 -52 7 -56 4 -5 -3 -10 0
-12 7 -3 8 -12 9 -36 0 -27 -9 -33 -8 -42 6 -6 12 -9 13 -10 3z m223 -96 c100
-17 138 -40 156 -91 18 -52 21 -358 3 -376 -7 -7 -12 -18 -12 -25 0 -57 -95
-171 -184 -222 -97 -56 -172 -72 -355 -78 -189 -7 -266 3 -391 49 -97 36 -156
73 -191 118 -13 18 -30 38 -36 45 -18 19 -69 131 -84 185 -17 59 -19 81 -8
102 23 44 200 151 339 206 80 32 281 79 389 92 108 12 291 10 374 -5z"/>
<path d="M2207 3139 c-30 -23 -34 -57 -17 -121 8 -27 22 -44 59 -67 64 -42
103 -41 146 2 32 32 33 35 23 76 -11 45 -47 79 -109 104 -66 28 -75 28 -102 6z"/>
<path d="M2138 3393 c7 -3 16 -2 19 1 4 3 -2 6 -13 5 -11 0 -14 -3 -6 -6z"/>
<path d="M1798 3383 c6 -2 18 -2 25 0 6 3 1 5 -13 5 -14 0 -19 -2 -12 -5z"/>
<path d="M1907 3373 c-10 -9 -9 -23 1 -23 5 0 9 7 9 15 0 17 -1 18 -10 8z"/>
<path d="M3335 3350 c-18 -82 59 -296 151 -422 52 -70 155 -151 171 -134 8 7
-6 41 -25 62 -54 61 -182 256 -182 279 0 4 -7 21 -15 38 -8 18 -23 68 -35 111
-25 98 -52 125 -65 66z"/>
<path d="M4465 3350 c-3 -5 -1 -10 4 -10 6 0 11 5 11 10 0 6 -2 10 -4 10 -3 0
-8 -4 -11 -10z"/>
<path d="M3768 3278 c-4 -10 -14 -18 -23 -18 -24 0 -12 -157 21 -256 54 -166
85 -218 199 -331 79 -78 121 -111 168 -133 58 -27 157 -50 237 -54 77 -4 208
40 241 80 13 16 12 17 -5 11 -97 -37 -280 -41 -381 -9 -161 50 -276 160 -350
334 -20 46 -40 91 -45 100 -8 15 -20 76 -47 243 -6 34 -11 44 -15 33z"/>
<path d="M4626 3264 c-17 -12 -17 -14 -4 -14 9 0 20 5 23 11 11 17 2 18 -19 3z"/>
<path d="M1626 3257 c3 -10 9 -15 12 -12 3 3 0 11 -7 18 -10 9 -11 8 -5 -6z"/>
<path d="M4668 3223 c7 -3 16 -2 19 1 4 3 -2 6 -13 5 -11 0 -14 -3 -6 -6z"/>
<path d="M1335 3190 c3 -5 8 -10 11 -10 2 0 4 5 4 10 0 6 -5 10 -11 10 -5 0
-7 -4 -4 -10z"/>
<path d="M4153 3132 c-46 -29 -27 -115 41 -179 68 -65 106 -68 149 -10 17 22
18 30 8 54 -35 82 -154 163 -198 135z"/>
<path d="M1353 3045 c0 -8 4 -15 9 -15 4 0 8 4 8 9 0 6 -4 12 -8 15 -5 3 -9
-1 -9 -9z"/>
<path d="M1458 3043 c7 -3 16 -2 19 1 4 3 -2 6 -13 5 -11 0 -14 -3 -6 -6z"/>
<path d="M1340 3016 c0 -2 7 -6 15 -10 8 -3 15 -1 15 4 0 6 -7 10 -15 10 -8 0
-15 -2 -15 -4z"/>
<path d="M941 2694 c0 -11 3 -14 6 -6 3 7 2 16 -1 19 -3 4 -6 -2 -5 -13z"/>
<path d="M3682 2687 c-15 -18 -33 -103 -26 -121 17 -43 54 7 54 72 0 53 -10
71 -28 49z"/>
<path d="M980 2681 c0 -6 4 -13 10 -16 6 -3 7 1 4 9 -7 18 -14 21 -14 7z"/>
<path d="M3526 2309 c-133 -18 -310 -85 -357 -135 -23 -24 -20 -29 25 -36 11
-2 33 -29 55 -70 84 -157 165 -232 296 -275 67 -22 98 -26 195 -26 168 -1 294
43 369 128 58 66 61 131 10 240 -40 87 -77 123 -156 152 -59 22 -87 26 -218
29 -82 1 -181 -2 -219 -7z m344 -63 c86 -9 93 -10 108 -19 6 -5 17 -5 24 -1 7
5 8 3 3 -6 -6 -10 -4 -12 9 -7 14 5 17 3 12 -8 -3 -9 0 -15 9 -15 8 0 15 -8
15 -18 0 -11 7 -33 16 -51 9 -17 13 -38 10 -46 -3 -8 -1 -15 3 -15 5 0 12 -8
16 -17 34 -85 1 -124 -153 -178 -54 -19 -79 -22 -185 -20 -135 4 -164 8 -222
32 -82 35 -195 138 -226 207 -7 14 -15 26 -19 26 -7 0 -30 45 -30 59 0 22 248
81 319 77 44 -3 57 -9 87 -40 20 -21 32 -41 28 -48 -4 -6 -3 -8 4 -4 6 3 27
-14 47 -39 39 -47 59 -56 69 -29 10 26 7 64 -6 64 -6 0 -9 3 -6 6 3 3 -9 20
-28 38 -19 18 -34 40 -34 48 0 16 13 16 130 4z"/>
<path d="M502 1774 c-40 -34 -79 -91 -69 -100 2 -2 16 8 31 22 50 51 89 74
124 74 29 0 44 -9 89 -54 29 -30 53 -60 53 -66 0 -15 25 -40 41 -40 9 0 9 -4
-1 -15 -9 -11 -17 -12 -31 -4 -23 12 -43 3 -35 -16 3 -8 -11 -21 -37 -34 l-42
-21 -17 20 c-12 15 -15 28 -9 43 4 12 7 32 6 45 -1 12 2 22 6 22 5 0 6 7 3 15
-11 28 -33 -3 -55 -78 -18 -60 -20 -85 -14 -160 20 -259 144 -469 254 -431 25
9 41 42 56 117 5 24 10 27 43 27 52 0 105 -31 184 -106 106 -102 139 -80 41
28 -61 68 -128 196 -142 272 -10 54 -2 57 45 21 31 -24 74 -34 74 -17 -1 49
-287 364 -394 434 -49 32 -68 38 -111 38 -45 0 -57 -5 -93 -36z m228 -194 c0
-5 -2 -10 -4 -10 -3 0 -8 5 -11 10 -3 6 -1 10 4 10 6 0 11 -4 11 -10z m134
-108 c-4 -18 -13 -32 -20 -32 -8 0 -14 -4 -14 -10 0 -5 -7 -10 -17 -10 -9 0
-14 -3 -10 -6 3 -3 -2 -14 -11 -24 -12 -14 -19 -17 -29 -8 -10 8 -13 5 -13
-13 0 -13 -3 -35 -6 -49 -4 -19 -3 -22 5 -10 6 8 22 15 36 15 14 1 29 5 33 11
11 14 62 35 73 29 5 -4 9 -12 8 -18 0 -9 -2 -9 -6 1 -2 6 -9 12 -14 12 -6 0
-8 -4 -5 -9 4 -5 3 -16 0 -25 -6 -15 -8 -15 -21 1 -13 16 -13 16 -2 -6 11 -22
13 -23 24 -8 21 29 41 20 50 -20 18 -85 18 -83 -1 -84 -27 -1 -48 -5 -87 -18
-27 -9 -36 -19 -46 -51 -9 -32 -17 -40 -35 -40 -13 0 -27 7 -30 16 -10 26 -7
54 6 54 6 0 8 3 4 7 -4 5 -14 -1 -22 -11 -14 -19 -14 -19 -14 2 0 12 -6 22
-12 22 -9 0 -8 3 2 10 12 8 12 11 -2 27 -18 21 -72 141 -86 196 -9 32 -8 37 6
37 14 0 15 2 2 10 -8 5 -12 11 -9 14 10 11 54 13 72 4 11 -5 25 -4 39 3 17 9
23 9 26 -1 3 -9 6 -9 12 0 4 6 27 14 51 16 24 3 46 7 48 10 12 11 21 -16 15
-44z"/>
<path d="M825 1499 c-24 -5 -25 -7 -7 -8 14 -1 22 -8 23 -18 0 -13 3 -11 10 6
11 29 11 29 -26 20z"/>
<path d="M715 1307 c3 -37 -5 -48 -26 -36 -27 14 -24 -6 4 -24 21 -14 23 -13
24 6 1 11 8 24 15 28 10 6 10 9 1 9 -7 0 -10 6 -7 14 3 8 1 16 -4 20 -5 3 -8
-5 -7 -17z"/>
<path d="M760 1286 c0 -8 -8 -17 -17 -19 -14 -4 -12 -5 5 -6 16 -1 22 5 22 19
0 11 -2 20 -5 20 -3 0 -5 -6 -5 -14z"/>
<path d="M826 1292 c-3 -6 4 -14 16 -18 38 -13 45 -12 45 2 0 10 -7 12 -20 8
-11 -3 -23 -1 -27 6 -5 8 -10 9 -14 2z"/>
<path d="M825 1250 c3 -5 8 -10 11 -10 2 0 4 5 4 10 0 6 -5 10 -11 10 -5 0 -7
-4 -4 -10z"/>
<path d="M745 1230 c3 -5 -2 -10 -12 -10 -15 0 -15 -2 -3 -9 8 -6 18 -7 22 -5
12 8 10 34 -3 34 -5 0 -7 -4 -4 -10z"/>
<path d="M843 1223 c-15 -5 -17 -23 -4 -23 5 0 11 7 15 15 3 8 4 15 3 14 -1 0
-8 -3 -14 -6z"/>
<path d="M760 1119 c0 -5 5 -7 10 -4 6 3 10 8 10 11 0 2 -4 4 -10 4 -5 0 -10
-5 -10 -11z"/>
<path d="M616 1715 c-3 -8 -1 -15 4 -15 6 0 10 7 10 15 0 8 -2 15 -4 15 -2 0
-6 -7 -10 -15z"/>
<path d="M630 1594 c0 -8 5 -12 10 -9 6 3 10 10 10 16 0 5 -4 9 -10 9 -5 0
-10 -7 -10 -16z"/>
<path d="M675 1590 c-3 -5 -1 -10 4 -10 6 0 11 5 11 10 0 6 -2 10 -4 10 -3 0
-8 -4 -11 -10z"/>
<path d="M2844 126 c1 -8 5 -18 8 -22 4 -3 5 1 4 10 -1 8 -5 18 -8 22 -4 3 -5
-1 -4 -10z"/>
<path d="M3902 124 c-7 -8 -8 -14 -3 -14 10 0 25 19 20 25 -2 1 -10 -3 -17
-11z"/>
<path d="M4125 100 c3 -5 8 -10 11 -10 2 0 4 5 4 10 0 6 -5 10 -11 10 -5 0 -7
-4 -4 -10z"/>
<path d="M2496 55 c-9 -26 -7 -32 5 -12 6 10 9 21 6 23 -2 3 -7 -2 -11 -11z"/>
<path d="M4125 40 c-3 -6 1 -7 9 -4 18 7 21 14 7 14 -6 0 -13 -4 -16 -10z"/>
<path d="M4092 21 c-11 -6 -9 -9 6 -13 15 -4 19 -2 15 8 -6 16 -4 16 -21 5z"/>
<path d="M2338 13 c7 -3 16 -2 19 1 4 3 -2 6 -13 5 -11 0 -14 -3 -6 -6z"/>
</g>
</svg>
